<svg width="95" height="83" viewBox="0 0 95 83" fill="none" xmlns="http://www.w3.org/2000/svg">
<path d="M0.564504 42.6778L21.9069 64.0201C22.6576 64.7709 23.8742 64.7728 24.6269 64.0221L64.1739 24.6348C64.9304 23.8822 64.9285 22.6579 64.172 21.9052L42.6737 0.558971C41.921 -0.187925 40.7063 -0.186 39.9556 0.562821L0.564504 39.9558C-0.188168 40.7085 -0.188168 41.927 0.564504 42.6778Z" fill="#64D993"/>
<path d="M30.6578 60.7242L52.0001 82.0666C52.7509 82.8173 53.9675 82.8192 54.7202 82.0685L94.2672 42.6813C95.0237 41.9286 95.0218 40.7043 94.2652 39.9516L72.7669 18.6054C72.0143 17.8585 70.7996 17.8604 70.0489 18.6093L30.6578 58.0003C29.9051 58.753 29.9051 59.9715 30.6578 60.7223V60.7242Z" fill="#64D993"/>
</svg>
