<svg width="95" height="95" viewBox="0 0 95 95" fill="none" xmlns="http://www.w3.org/2000/svg">
<path d="M20.5503 67.2716L47.248 47.2479L20.5503 27.2241C20.0902 26.8795 19.4472 26.9257 19.0411 27.3319L0.62084 45.7502C-0.206906 46.578 -0.206906 47.9178 0.62084 48.7455L19.0411 67.1657C19.4472 67.5719 20.0902 67.6181 20.5503 67.2735V67.2716Z" fill="#FADF4B"/>
<path d="M67.2717 73.9457L47.248 47.248L27.2242 73.9457C26.8796 74.4058 26.9258 75.0487 27.332 75.4549L45.7522 93.8751C46.58 94.7029 47.9198 94.7029 48.7475 93.8751L67.1678 75.4549C67.5739 75.0487 67.6201 74.4058 67.2756 73.9457H67.2717Z" fill="#FADF4B"/>
<path d="M73.9457 27.2246L47.248 47.2484L73.9457 67.2721C74.4058 67.6167 75.0488 67.5705 75.4549 67.1643L93.8752 48.7441C94.7029 47.9163 94.7029 46.5765 93.8752 45.7488L75.4549 27.3286C75.0488 26.9224 74.4058 26.8762 73.9457 27.2208V27.2246Z" fill="#FADF4B"/>
<path d="M27.2245 20.5502L47.2482 47.2479L67.2719 20.5502C67.6165 20.0902 67.5703 19.4472 67.1641 19.041L48.7458 0.620809C47.9181 -0.206937 46.5783 -0.206937 45.7506 0.620809L27.3303 19.041C26.9242 19.4472 26.878 20.0902 27.2225 20.5502H27.2245Z" fill="#FADF4B"/>
</svg>
