<svg width="384" height="62" viewBox="0 0 384 62" fill="none" xmlns="http://www.w3.org/2000/svg">
<path d="M173.665 31.5978L157.971 15.9039C155.546 13.4786 151.614 13.4786 149.189 15.9039L133.495 31.5978C131.07 34.0231 131.07 37.9552 133.495 40.3804L149.189 56.0744C151.614 58.4996 155.546 58.4996 157.971 56.0744L173.665 40.3804C176.091 37.9552 176.091 34.0231 173.665 31.5978Z" fill="#1F1F1F"/>
<path d="M25.3618 0.00527007H37.7727V43.3195C37.7727 54.1254 31.0752 61.3579 18.306 61.3579C6.87429 61.3579 0 55.1047 0 42.9612V36.8895H11.2501V42.3354C11.2501 48.3211 13.2135 51.2639 18.306 51.2639C24.0194 51.2639 25.3618 48.6746 25.3618 42.1539V0.000488281V0.00527007Z" fill="#1F1F1F"/>
<path d="M66.7984 0.00484283H79.2142V43.3191C79.2142 54.1249 72.5166 61.3575 59.7474 61.3575C48.3157 61.3575 41.4414 55.1042 41.4414 42.9608V36.889H52.6915V42.335C52.6915 48.3207 54.6549 51.2634 59.7474 51.2634C65.4608 51.2634 66.8032 48.6742 66.8032 42.1534V6.10352e-05L66.7984 0.00484283Z" fill="#1F1F1F"/>
<path d="M95.4662 40.3717C95.8245 46.9785 99.5746 51.2684 105.288 51.2684C109.038 51.2684 112.344 49.3909 113.146 46.3575H125.113C122.433 55.3767 115.201 60.4691 105.823 60.4691C91.1764 60.4691 83.853 52.434 83.853 36.5357C83.853 22.9639 91.6206 14.2074 105.106 14.2074C118.592 14.2074 125.734 22.9591 125.734 40.3717H95.4615H95.4662ZM113.777 33.0484C113.6 26.5276 109.31 23.4034 104.758 23.4034C100.205 23.4034 96.2736 26.9767 95.8293 33.0484H113.782H113.777Z" fill="#1F1F1F"/>
<path d="M232.082 59.3038V32.6904C232.082 27.4213 229.312 23.6712 225.203 23.6712C221.095 23.6712 217.794 27.6888 217.794 33.0487V59.3038H206.185V32.8672C206.185 25.8114 204.308 24.0247 199.22 24.0247C194.577 24.0247 192.165 26.8814 192.165 32.5997V59.3038H180.556V15.3638H191.453V21.7938C194.4 15.9896 198.509 14.2029 204.313 14.2029C210.117 14.2029 213.155 16.0804 216.547 21.168C218.959 16.3479 222.886 14.2029 228.423 14.2029C237.265 14.2029 243.423 20.633 243.423 28.8496V59.3038H232.082Z" fill="#1F1F1F"/>
<path d="M285.4 59.3039L260.038 19.4722V59.3039H248.516V0.00543213H261.643L285.218 38.1365V0.00543213H296.827V59.3039H285.395H285.4Z" fill="#1F1F1F"/>
<path d="M313.088 40.3717C313.446 46.9785 317.196 51.2684 322.91 51.2684C326.66 51.2684 329.965 49.3909 330.768 46.3575H342.735C340.055 55.3767 332.822 60.4691 323.445 60.4691C308.798 60.4691 301.475 52.434 301.475 36.5357C301.475 22.9639 309.242 14.2074 322.728 14.2074C336.214 14.2074 343.356 22.9591 343.356 40.3717H313.083H313.088ZM331.394 33.0484C331.217 26.5276 326.927 23.4034 322.375 23.4034C317.822 23.4034 313.89 26.9767 313.446 33.0484H331.399H331.394Z" fill="#1F1F1F"/>
<path d="M373.194 30.3688H384V42.8705C384 52.1573 378.64 60.4647 366.229 60.4647C353.818 60.4647 348.277 52.248 348.277 42.7845V3.49268H359.709V15.3686H384V23.5853H359.709V41.6237C359.709 47.1604 361.672 50.3754 366.406 50.3754C371.14 50.3754 373.194 47.2512 373.194 41.8005V30.3688Z" fill="#1F1F1F"/>
</svg>
